<svg width="48" height="48" viewBox="0 0 48 48" fill="none" xmlns="http://www.w3.org/2000/svg">
  <!-- Background circle -->
  <circle cx="24" cy="24" r="22" fill="#f97316"/>
  
  <!-- People group (3 figures) -->
  <!-- Center person -->
  <circle cx="24" cy="16" r="4" fill="white"/>
  <path d="M18 28C18 24.6863 20.6863 22 24 22C27.3137 22 30 24.6863 30 28V32H18V28Z" fill="white"/>
  
  <!-- Left person (smaller) -->
  <circle cx="14" cy="18" r="3" fill="white" opacity="0.8"/>
  <path d="M9 28C9 25.7909 10.7909 24 13 24H15C15.5523 24 16 24.4477 16 25V32H9V28Z" fill="white" opacity="0.8"/>
  
  <!-- Right person (smaller) -->
  <circle cx="34" cy="18" r="3" fill="white" opacity="0.8"/>
  <path d="M32 25C32 24.4477 32.4477 24 33 24H35C37.2091 24 39 25.7909 39 28V32H32V25Z" fill="white" opacity="0.8"/>
  
  <!-- Calendar/schedule indicator -->
  <rect x="20" y="34" width="8" height="6" rx="1" fill="white"/>
  <rect x="21" y="32" width="2" height="3" rx="0.5" fill="white"/>
  <rect x="25" y="32" width="2" height="3" rx="0.5" fill="white"/>
  <rect x="22" y="36" width="4" height="2" rx="0.5" fill="#f97316"/>
</svg>

